<mxfile host="Electron" agent="Mozilla/5.0 (Windows NT 10.0; Win64; x64) AppleWebKit/537.36 (KHTML, like Gecko) draw.io/27.0.9 Chrome/134.0.6998.205 Electron/35.4.0 Safari/537.36" version="27.0.9">
  <diagram name="Página-1" id="0D7fyYeghdKoeD4itU5n">
    <mxGraphModel dx="1501" dy="885" grid="1" gridSize="10" guides="1" tooltips="1" connect="1" arrows="1" fold="1" page="1" pageScale="1" pageWidth="827" pageHeight="1169" math="0" shadow="0">
      <root>
        <mxCell id="0" />
        <mxCell id="1" parent="0" />
        <mxCell id="Im5mbbu3NTZtbHSFDWac-4" style="edgeStyle=orthogonalEdgeStyle;rounded=0;orthogonalLoop=1;jettySize=auto;html=1;exitX=0.5;exitY=0;exitDx=0;exitDy=0;entryX=0.013;entryY=1.115;entryDx=0;entryDy=0;endArrow=block;endFill=0;strokeWidth=1;entryPerimeter=0;" edge="1" parent="1" source="QnhNKuaYADcW9F5FDfBM-6" target="Im5mbbu3NTZtbHSFDWac-8">
          <mxGeometry relative="1" as="geometry">
            <mxPoint x="720" y="153" as="targetPoint" />
          </mxGeometry>
        </mxCell>
        <mxCell id="Im5mbbu3NTZtbHSFDWac-40" style="edgeStyle=orthogonalEdgeStyle;rounded=0;orthogonalLoop=1;jettySize=auto;html=1;entryX=0.564;entryY=-0.009;entryDx=0;entryDy=0;entryPerimeter=0;endArrow=none;startFill=0;" edge="1" parent="1" source="QnhNKuaYADcW9F5FDfBM-6" target="Im5mbbu3NTZtbHSFDWac-12">
          <mxGeometry relative="1" as="geometry">
            <Array as="points">
              <mxPoint x="690" y="540" />
              <mxPoint x="1060" y="540" />
              <mxPoint x="1060" y="830" />
              <mxPoint x="1060" y="830" />
            </Array>
          </mxGeometry>
        </mxCell>
        <mxCell id="Im5mbbu3NTZtbHSFDWac-67" value="1" style="edgeLabel;html=1;align=center;verticalAlign=middle;resizable=0;points=[];" vertex="1" connectable="0" parent="Im5mbbu3NTZtbHSFDWac-40">
          <mxGeometry x="-0.9759" y="-1" relative="1" as="geometry">
            <mxPoint as="offset" />
          </mxGeometry>
        </mxCell>
        <mxCell id="Im5mbbu3NTZtbHSFDWac-68" value="1" style="edgeLabel;html=1;align=center;verticalAlign=middle;resizable=0;points=[];" vertex="1" connectable="0" parent="Im5mbbu3NTZtbHSFDWac-40">
          <mxGeometry x="0.8859" relative="1" as="geometry">
            <mxPoint as="offset" />
          </mxGeometry>
        </mxCell>
        <mxCell id="Im5mbbu3NTZtbHSFDWac-45" style="edgeStyle=orthogonalEdgeStyle;rounded=0;orthogonalLoop=1;jettySize=auto;html=1;endArrow=none;startFill=0;" edge="1" parent="1" source="QnhNKuaYADcW9F5FDfBM-6" target="Im5mbbu3NTZtbHSFDWac-21">
          <mxGeometry relative="1" as="geometry">
            <Array as="points">
              <mxPoint x="640" y="633" />
            </Array>
          </mxGeometry>
        </mxCell>
        <mxCell id="Im5mbbu3NTZtbHSFDWac-46" value="1" style="edgeLabel;html=1;align=center;verticalAlign=middle;resizable=0;points=[];" vertex="1" connectable="0" parent="Im5mbbu3NTZtbHSFDWac-45">
          <mxGeometry x="-0.8759" y="2" relative="1" as="geometry">
            <mxPoint as="offset" />
          </mxGeometry>
        </mxCell>
        <mxCell id="Im5mbbu3NTZtbHSFDWac-47" value="1..*" style="edgeLabel;html=1;align=center;verticalAlign=middle;resizable=0;points=[];" vertex="1" connectable="0" parent="Im5mbbu3NTZtbHSFDWac-45">
          <mxGeometry x="0.7735" y="-3" relative="1" as="geometry">
            <mxPoint as="offset" />
          </mxGeometry>
        </mxCell>
        <mxCell id="QnhNKuaYADcW9F5FDfBM-6" value="Eleitor" style="swimlane;fontStyle=1;align=center;verticalAlign=top;childLayout=stackLayout;horizontal=1;startSize=26;horizontalStack=0;resizeParent=1;resizeParentMax=0;resizeLast=0;collapsible=1;marginBottom=0;whiteSpace=wrap;html=1;" parent="1" vertex="1">
          <mxGeometry x="540" y="310" width="160" height="110" as="geometry" />
        </mxCell>
        <mxCell id="QnhNKuaYADcW9F5FDfBM-7" value="&lt;div&gt;&lt;div&gt;&lt;div&gt;secao: String&lt;/div&gt;&lt;/div&gt;&lt;/div&gt;&lt;div&gt;zonaEleitoral: String&lt;/div&gt;&lt;div&gt;tituloDeEleitor: String&lt;/div&gt;&lt;div&gt;foto: String&lt;/div&gt;" style="text;strokeColor=none;fillColor=none;align=left;verticalAlign=top;spacingLeft=4;spacingRight=4;overflow=hidden;rotatable=0;points=[[0,0.5],[1,0.5]];portConstraint=eastwest;whiteSpace=wrap;html=1;" parent="QnhNKuaYADcW9F5FDfBM-6" vertex="1">
          <mxGeometry y="26" width="160" height="74" as="geometry" />
        </mxCell>
        <mxCell id="QnhNKuaYADcW9F5FDfBM-8" value="" style="line;strokeWidth=1;fillColor=none;align=left;verticalAlign=middle;spacingTop=-1;spacingLeft=3;spacingRight=3;rotatable=0;labelPosition=right;points=[];portConstraint=eastwest;strokeColor=inherit;" parent="QnhNKuaYADcW9F5FDfBM-6" vertex="1">
          <mxGeometry y="100" width="160" height="10" as="geometry" />
        </mxCell>
        <mxCell id="QnhNKuaYADcW9F5FDfBM-11" value="Urna" style="swimlane;fontStyle=1;align=center;verticalAlign=top;childLayout=stackLayout;horizontal=1;startSize=26;horizontalStack=0;resizeParent=1;resizeParentMax=0;resizeLast=0;collapsible=1;marginBottom=0;whiteSpace=wrap;html=1;" parent="1" vertex="1">
          <mxGeometry x="540" y="860" width="160" height="180" as="geometry" />
        </mxCell>
        <mxCell id="QnhNKuaYADcW9F5FDfBM-12" value="&lt;div&gt;&lt;div&gt;&lt;div&gt;numSerie: int&lt;/div&gt;&lt;/div&gt;&lt;/div&gt;&lt;div&gt;secao: String&lt;/div&gt;&lt;div&gt;zonaEleitoral: String&lt;/div&gt;" style="text;strokeColor=none;fillColor=none;align=left;verticalAlign=top;spacingLeft=4;spacingRight=4;overflow=hidden;rotatable=0;points=[[0,0.5],[1,0.5]];portConstraint=eastwest;whiteSpace=wrap;html=1;" parent="QnhNKuaYADcW9F5FDfBM-11" vertex="1">
          <mxGeometry y="26" width="160" height="74" as="geometry" />
        </mxCell>
        <mxCell id="QnhNKuaYADcW9F5FDfBM-13" value="" style="line;strokeWidth=1;fillColor=none;align=left;verticalAlign=middle;spacingTop=-1;spacingLeft=3;spacingRight=3;rotatable=0;labelPosition=right;points=[];portConstraint=eastwest;strokeColor=inherit;" parent="QnhNKuaYADcW9F5FDfBM-11" vertex="1">
          <mxGeometry y="100" width="160" height="8" as="geometry" />
        </mxCell>
        <mxCell id="QnhNKuaYADcW9F5FDfBM-14" value="HablilitaUrna()&lt;div&gt;DisplayTela()&lt;/div&gt;" style="text;strokeColor=none;fillColor=none;align=left;verticalAlign=top;spacingLeft=4;spacingRight=4;overflow=hidden;rotatable=0;points=[[0,0.5],[1,0.5]];portConstraint=eastwest;whiteSpace=wrap;html=1;" parent="QnhNKuaYADcW9F5FDfBM-11" vertex="1">
          <mxGeometry y="108" width="160" height="72" as="geometry" />
        </mxCell>
        <mxCell id="QnhNKuaYADcW9F5FDfBM-15" value="Mesário" style="swimlane;fontStyle=1;align=center;verticalAlign=top;childLayout=stackLayout;horizontal=1;startSize=26;horizontalStack=0;resizeParent=1;resizeParentMax=0;resizeLast=0;collapsible=1;marginBottom=0;whiteSpace=wrap;html=1;" parent="1" vertex="1">
          <mxGeometry x="740" y="312" width="160" height="180" as="geometry" />
        </mxCell>
        <mxCell id="QnhNKuaYADcW9F5FDfBM-16" value="userAcesso: String&lt;div&gt;senhaAcesso: String&lt;/div&gt;&lt;div&gt;secao: String&lt;/div&gt;&lt;div&gt;zonaEleitoral: String&lt;/div&gt;" style="text;strokeColor=none;fillColor=none;align=left;verticalAlign=top;spacingLeft=4;spacingRight=4;overflow=hidden;rotatable=0;points=[[0,0.5],[1,0.5]];portConstraint=eastwest;whiteSpace=wrap;html=1;" parent="QnhNKuaYADcW9F5FDfBM-15" vertex="1">
          <mxGeometry y="26" width="160" height="74" as="geometry" />
        </mxCell>
        <mxCell id="QnhNKuaYADcW9F5FDfBM-17" value="" style="line;strokeWidth=1;fillColor=none;align=left;verticalAlign=middle;spacingTop=-1;spacingLeft=3;spacingRight=3;rotatable=0;labelPosition=right;points=[];portConstraint=eastwest;strokeColor=inherit;" parent="QnhNKuaYADcW9F5FDfBM-15" vertex="1">
          <mxGeometry y="100" width="160" height="8" as="geometry" />
        </mxCell>
        <mxCell id="QnhNKuaYADcW9F5FDfBM-18" value="&lt;div&gt;&lt;div&gt;&lt;span style=&quot;background-color: transparent; color: light-dark(rgb(0, 0, 0), rgb(255, 255, 255));&quot;&gt;habilitaUrna()&lt;/span&gt;&lt;/div&gt;&lt;/div&gt;&lt;div&gt;&lt;span style=&quot;background-color: transparent; color: light-dark(rgb(0, 0, 0), rgb(255, 255, 255));&quot;&gt;confirmaPresenca()&lt;/span&gt;&lt;/div&gt;" style="text;strokeColor=none;fillColor=none;align=left;verticalAlign=top;spacingLeft=4;spacingRight=4;overflow=hidden;rotatable=0;points=[[0,0.5],[1,0.5]];portConstraint=eastwest;whiteSpace=wrap;html=1;" parent="QnhNKuaYADcW9F5FDfBM-15" vertex="1">
          <mxGeometry y="108" width="160" height="72" as="geometry" />
        </mxCell>
        <mxCell id="QnhNKuaYADcW9F5FDfBM-19" value="Membro TSE" style="swimlane;fontStyle=1;align=center;verticalAlign=top;childLayout=stackLayout;horizontal=1;startSize=26;horizontalStack=0;resizeParent=1;resizeParentMax=0;resizeLast=0;collapsible=1;marginBottom=0;whiteSpace=wrap;html=1;" parent="1" vertex="1">
          <mxGeometry x="1130" y="312" width="160" height="180" as="geometry" />
        </mxCell>
        <mxCell id="QnhNKuaYADcW9F5FDfBM-20" value="userAcesso: String&lt;div&gt;senhaAcesso: String&lt;/div&gt;" style="text;strokeColor=none;fillColor=none;align=left;verticalAlign=top;spacingLeft=4;spacingRight=4;overflow=hidden;rotatable=0;points=[[0,0.5],[1,0.5]];portConstraint=eastwest;whiteSpace=wrap;html=1;" parent="QnhNKuaYADcW9F5FDfBM-19" vertex="1">
          <mxGeometry y="26" width="160" height="74" as="geometry" />
        </mxCell>
        <mxCell id="QnhNKuaYADcW9F5FDfBM-21" value="" style="line;strokeWidth=1;fillColor=none;align=left;verticalAlign=middle;spacingTop=-1;spacingLeft=3;spacingRight=3;rotatable=0;labelPosition=right;points=[];portConstraint=eastwest;strokeColor=inherit;" parent="QnhNKuaYADcW9F5FDfBM-19" vertex="1">
          <mxGeometry y="100" width="160" height="8" as="geometry" />
        </mxCell>
        <mxCell id="QnhNKuaYADcW9F5FDfBM-22" value="registraCandidatos()" style="text;strokeColor=none;fillColor=none;align=left;verticalAlign=top;spacingLeft=4;spacingRight=4;overflow=hidden;rotatable=0;points=[[0,0.5],[1,0.5]];portConstraint=eastwest;whiteSpace=wrap;html=1;" parent="QnhNKuaYADcW9F5FDfBM-19" vertex="1">
          <mxGeometry y="108" width="160" height="72" as="geometry" />
        </mxCell>
        <mxCell id="Im5mbbu3NTZtbHSFDWac-6" style="edgeStyle=orthogonalEdgeStyle;rounded=0;orthogonalLoop=1;jettySize=auto;html=1;exitX=0.5;exitY=0;exitDx=0;exitDy=0;entryX=1;entryY=-0.077;entryDx=0;entryDy=0;endArrow=block;endFill=0;entryPerimeter=0;" edge="1" parent="1" source="QnhNKuaYADcW9F5FDfBM-27" target="Im5mbbu3NTZtbHSFDWac-10">
          <mxGeometry relative="1" as="geometry">
            <mxPoint x="880" y="153" as="targetPoint" />
          </mxGeometry>
        </mxCell>
        <mxCell id="QnhNKuaYADcW9F5FDfBM-27" value="Gerenciador de SIstema" style="swimlane;fontStyle=1;align=center;verticalAlign=top;childLayout=stackLayout;horizontal=1;startSize=26;horizontalStack=0;resizeParent=1;resizeParentMax=0;resizeLast=0;collapsible=1;marginBottom=0;whiteSpace=wrap;html=1;" parent="1" vertex="1">
          <mxGeometry x="940" y="312" width="160" height="180" as="geometry" />
        </mxCell>
        <mxCell id="QnhNKuaYADcW9F5FDfBM-28" value="&lt;div&gt;&lt;div&gt;&lt;div&gt;userAcesso: String&lt;/div&gt;&lt;/div&gt;&lt;/div&gt;&lt;div&gt;senhaAcesso: String&lt;/div&gt;" style="text;strokeColor=none;fillColor=none;align=left;verticalAlign=top;spacingLeft=4;spacingRight=4;overflow=hidden;rotatable=0;points=[[0,0.5],[1,0.5]];portConstraint=eastwest;whiteSpace=wrap;html=1;" parent="QnhNKuaYADcW9F5FDfBM-27" vertex="1">
          <mxGeometry y="26" width="160" height="74" as="geometry" />
        </mxCell>
        <mxCell id="QnhNKuaYADcW9F5FDfBM-29" value="" style="line;strokeWidth=1;fillColor=none;align=left;verticalAlign=middle;spacingTop=-1;spacingLeft=3;spacingRight=3;rotatable=0;labelPosition=right;points=[];portConstraint=eastwest;strokeColor=inherit;" parent="QnhNKuaYADcW9F5FDfBM-27" vertex="1">
          <mxGeometry y="100" width="160" height="8" as="geometry" />
        </mxCell>
        <mxCell id="QnhNKuaYADcW9F5FDfBM-30" value="visualizarRelatório()" style="text;strokeColor=none;fillColor=none;align=left;verticalAlign=top;spacingLeft=4;spacingRight=4;overflow=hidden;rotatable=0;points=[[0,0.5],[1,0.5]];portConstraint=eastwest;whiteSpace=wrap;html=1;" parent="QnhNKuaYADcW9F5FDfBM-27" vertex="1">
          <mxGeometry y="108" width="160" height="72" as="geometry" />
        </mxCell>
        <mxCell id="Im5mbbu3NTZtbHSFDWac-5" style="edgeStyle=orthogonalEdgeStyle;rounded=0;orthogonalLoop=1;jettySize=auto;html=1;exitX=0.5;exitY=0;exitDx=0;exitDy=0;endArrow=block;endFill=0;entryX=0.476;entryY=0.989;entryDx=0;entryDy=0;entryPerimeter=0;" edge="1" parent="1" source="QnhNKuaYADcW9F5FDfBM-15" target="Im5mbbu3NTZtbHSFDWac-10">
          <mxGeometry relative="1" as="geometry">
            <mxPoint x="799" y="230" as="targetPoint" />
          </mxGeometry>
        </mxCell>
        <mxCell id="Im5mbbu3NTZtbHSFDWac-7" value="Pessoa&lt;div&gt;&lt;br&gt;&lt;/div&gt;" style="swimlane;fontStyle=1;align=center;verticalAlign=top;childLayout=stackLayout;horizontal=1;startSize=26;horizontalStack=0;resizeParent=1;resizeParentMax=0;resizeLast=0;collapsible=1;marginBottom=0;whiteSpace=wrap;html=1;" vertex="1" parent="1">
          <mxGeometry x="740" y="100" width="160" height="128" as="geometry" />
        </mxCell>
        <mxCell id="Im5mbbu3NTZtbHSFDWac-8" value="nome: String&lt;div&gt;documento: String&lt;/div&gt;&lt;div&gt;&lt;br&gt;&lt;/div&gt;" style="text;strokeColor=none;fillColor=none;align=left;verticalAlign=top;spacingLeft=4;spacingRight=4;overflow=hidden;rotatable=0;points=[[0,0.5],[1,0.5]];portConstraint=eastwest;whiteSpace=wrap;html=1;" vertex="1" parent="Im5mbbu3NTZtbHSFDWac-7">
          <mxGeometry y="26" width="160" height="44" as="geometry" />
        </mxCell>
        <mxCell id="Im5mbbu3NTZtbHSFDWac-9" value="" style="line;strokeWidth=1;fillColor=none;align=left;verticalAlign=middle;spacingTop=-1;spacingLeft=3;spacingRight=3;rotatable=0;labelPosition=right;points=[];portConstraint=eastwest;strokeColor=inherit;" vertex="1" parent="Im5mbbu3NTZtbHSFDWac-7">
          <mxGeometry y="70" width="160" height="8" as="geometry" />
        </mxCell>
        <mxCell id="Im5mbbu3NTZtbHSFDWac-10" value="getDocumento(): String&lt;div&gt;getNome(): String&lt;/div&gt;" style="text;strokeColor=none;fillColor=none;align=left;verticalAlign=top;spacingLeft=4;spacingRight=4;overflow=hidden;rotatable=0;points=[[0,0.5],[1,0.5]];portConstraint=eastwest;whiteSpace=wrap;html=1;" vertex="1" parent="Im5mbbu3NTZtbHSFDWac-7">
          <mxGeometry y="78" width="160" height="50" as="geometry" />
        </mxCell>
        <mxCell id="Im5mbbu3NTZtbHSFDWac-33" value="" style="edgeStyle=orthogonalEdgeStyle;rounded=0;orthogonalLoop=1;jettySize=auto;html=1;entryX=1;entryY=0.5;entryDx=0;entryDy=0;endArrow=diamondThin;endFill=1;" edge="1" parent="1" source="Im5mbbu3NTZtbHSFDWac-12" target="Im5mbbu3NTZtbHSFDWac-17">
          <mxGeometry relative="1" as="geometry" />
        </mxCell>
        <mxCell id="Im5mbbu3NTZtbHSFDWac-34" value="1" style="edgeLabel;html=1;align=center;verticalAlign=middle;resizable=0;points=[];" vertex="1" connectable="0" parent="Im5mbbu3NTZtbHSFDWac-33">
          <mxGeometry x="0.9103" relative="1" as="geometry">
            <mxPoint y="-8" as="offset" />
          </mxGeometry>
        </mxCell>
        <mxCell id="Im5mbbu3NTZtbHSFDWac-35" value="1..100" style="edgeLabel;html=1;align=center;verticalAlign=middle;resizable=0;points=[];" vertex="1" connectable="0" parent="Im5mbbu3NTZtbHSFDWac-33">
          <mxGeometry x="-0.9513" relative="1" as="geometry">
            <mxPoint x="-23" as="offset" />
          </mxGeometry>
        </mxCell>
        <mxCell id="Im5mbbu3NTZtbHSFDWac-12" value="UEv" style="swimlane;fontStyle=1;align=center;verticalAlign=top;childLayout=stackLayout;horizontal=1;startSize=26;horizontalStack=0;resizeParent=1;resizeParentMax=0;resizeLast=0;collapsible=1;marginBottom=0;whiteSpace=wrap;html=1;" vertex="1" parent="1">
          <mxGeometry x="970" y="830" width="160" height="140" as="geometry" />
        </mxCell>
        <mxCell id="Im5mbbu3NTZtbHSFDWac-13" value="urna: Urna" style="text;strokeColor=none;fillColor=none;align=left;verticalAlign=top;spacingLeft=4;spacingRight=4;overflow=hidden;rotatable=0;points=[[0,0.5],[1,0.5]];portConstraint=eastwest;whiteSpace=wrap;html=1;" vertex="1" parent="Im5mbbu3NTZtbHSFDWac-12">
          <mxGeometry y="26" width="160" height="26" as="geometry" />
        </mxCell>
        <mxCell id="Im5mbbu3NTZtbHSFDWac-14" value="" style="line;strokeWidth=1;fillColor=none;align=left;verticalAlign=middle;spacingTop=-1;spacingLeft=3;spacingRight=3;rotatable=0;labelPosition=right;points=[];portConstraint=eastwest;strokeColor=inherit;" vertex="1" parent="Im5mbbu3NTZtbHSFDWac-12">
          <mxGeometry y="52" width="160" height="8" as="geometry" />
        </mxCell>
        <mxCell id="Im5mbbu3NTZtbHSFDWac-15" value="confirmaNumInscricao()&lt;div&gt;selecionaCandidato()&lt;/div&gt;&lt;div&gt;votoBranco()&lt;/div&gt;&lt;div&gt;votoNulo()&lt;/div&gt;" style="text;strokeColor=none;fillColor=none;align=left;verticalAlign=top;spacingLeft=4;spacingRight=4;overflow=hidden;rotatable=0;points=[[0,0.5],[1,0.5]];portConstraint=eastwest;whiteSpace=wrap;html=1;" vertex="1" parent="Im5mbbu3NTZtbHSFDWac-12">
          <mxGeometry y="60" width="160" height="80" as="geometry" />
        </mxCell>
        <mxCell id="Im5mbbu3NTZtbHSFDWac-16" value="UEg" style="swimlane;fontStyle=1;align=center;verticalAlign=top;childLayout=stackLayout;horizontal=1;startSize=26;horizontalStack=0;resizeParent=1;resizeParentMax=0;resizeLast=0;collapsible=1;marginBottom=0;whiteSpace=wrap;html=1;" vertex="1" parent="1">
          <mxGeometry x="540" y="660" width="160" height="138" as="geometry" />
        </mxCell>
        <mxCell id="Im5mbbu3NTZtbHSFDWac-17" value="uevs: UEv[]&lt;div&gt;candidatos: Candidato[]&lt;/div&gt;" style="text;strokeColor=none;fillColor=none;align=left;verticalAlign=top;spacingLeft=4;spacingRight=4;overflow=hidden;rotatable=0;points=[[0,0.5],[1,0.5]];portConstraint=eastwest;whiteSpace=wrap;html=1;" vertex="1" parent="Im5mbbu3NTZtbHSFDWac-16">
          <mxGeometry y="26" width="160" height="44" as="geometry" />
        </mxCell>
        <mxCell id="Im5mbbu3NTZtbHSFDWac-18" value="" style="line;strokeWidth=1;fillColor=none;align=left;verticalAlign=middle;spacingTop=-1;spacingLeft=3;spacingRight=3;rotatable=0;labelPosition=right;points=[];portConstraint=eastwest;strokeColor=inherit;" vertex="1" parent="Im5mbbu3NTZtbHSFDWac-16">
          <mxGeometry y="70" width="160" height="8" as="geometry" />
        </mxCell>
        <mxCell id="Im5mbbu3NTZtbHSFDWac-19" value="totalizarVotos()&lt;div&gt;mostraListaUEv()&lt;/div&gt;&lt;div&gt;preparaUEv()&lt;br&gt;&lt;div&gt;&lt;br&gt;&lt;/div&gt;&lt;/div&gt;" style="text;strokeColor=none;fillColor=none;align=left;verticalAlign=top;spacingLeft=4;spacingRight=4;overflow=hidden;rotatable=0;points=[[0,0.5],[1,0.5]];portConstraint=eastwest;whiteSpace=wrap;html=1;" vertex="1" parent="Im5mbbu3NTZtbHSFDWac-16">
          <mxGeometry y="78" width="160" height="60" as="geometry" />
        </mxCell>
        <mxCell id="Im5mbbu3NTZtbHSFDWac-20" value="Voto" style="swimlane;fontStyle=1;align=center;verticalAlign=top;childLayout=stackLayout;horizontal=1;startSize=26;horizontalStack=0;resizeParent=1;resizeParentMax=0;resizeLast=0;collapsible=1;marginBottom=0;whiteSpace=wrap;html=1;" vertex="1" parent="1">
          <mxGeometry x="750" y="580" width="160" height="80" as="geometry" />
        </mxCell>
        <mxCell id="Im5mbbu3NTZtbHSFDWac-21" value="numCandidato: int&lt;div&gt;zonaEleitoral: String&lt;/div&gt;&lt;div&gt;secao: String&lt;/div&gt;" style="text;strokeColor=none;fillColor=none;align=left;verticalAlign=top;spacingLeft=4;spacingRight=4;overflow=hidden;rotatable=0;points=[[0,0.5],[1,0.5]];portConstraint=eastwest;whiteSpace=wrap;html=1;" vertex="1" parent="Im5mbbu3NTZtbHSFDWac-20">
          <mxGeometry y="26" width="160" height="54" as="geometry" />
        </mxCell>
        <mxCell id="Im5mbbu3NTZtbHSFDWac-37" style="edgeStyle=orthogonalEdgeStyle;rounded=0;orthogonalLoop=1;jettySize=auto;html=1;entryX=0.5;entryY=0;entryDx=0;entryDy=0;endArrow=diamondThin;endFill=0;" edge="1" parent="1" source="Im5mbbu3NTZtbHSFDWac-24" target="Im5mbbu3NTZtbHSFDWac-16">
          <mxGeometry relative="1" as="geometry">
            <Array as="points">
              <mxPoint x="440" y="530" />
              <mxPoint x="620" y="530" />
            </Array>
          </mxGeometry>
        </mxCell>
        <mxCell id="Im5mbbu3NTZtbHSFDWac-38" value="1" style="edgeLabel;html=1;align=center;verticalAlign=middle;resizable=0;points=[];" vertex="1" connectable="0" parent="Im5mbbu3NTZtbHSFDWac-37">
          <mxGeometry x="0.8556" y="1" relative="1" as="geometry">
            <mxPoint as="offset" />
          </mxGeometry>
        </mxCell>
        <mxCell id="Im5mbbu3NTZtbHSFDWac-39" value="1..*" style="edgeLabel;html=1;align=center;verticalAlign=middle;resizable=0;points=[];" vertex="1" connectable="0" parent="Im5mbbu3NTZtbHSFDWac-37">
          <mxGeometry x="-0.9003" y="-1" relative="1" as="geometry">
            <mxPoint x="1" as="offset" />
          </mxGeometry>
        </mxCell>
        <mxCell id="Im5mbbu3NTZtbHSFDWac-24" value="Candidato" style="swimlane;fontStyle=1;align=center;verticalAlign=top;childLayout=stackLayout;horizontal=1;startSize=26;horizontalStack=0;resizeParent=1;resizeParentMax=0;resizeLast=0;collapsible=1;marginBottom=0;whiteSpace=wrap;html=1;" vertex="1" parent="1">
          <mxGeometry x="360" y="311" width="160" height="180" as="geometry" />
        </mxCell>
        <mxCell id="Im5mbbu3NTZtbHSFDWac-25" value="cargo: String&lt;div&gt;apelido: String&lt;/div&gt;&lt;div&gt;numCandidato: int&lt;/div&gt;&lt;div&gt;foto: String&lt;/div&gt;" style="text;strokeColor=none;fillColor=none;align=left;verticalAlign=top;spacingLeft=4;spacingRight=4;overflow=hidden;rotatable=0;points=[[0,0.5],[1,0.5]];portConstraint=eastwest;whiteSpace=wrap;html=1;" vertex="1" parent="Im5mbbu3NTZtbHSFDWac-24">
          <mxGeometry y="26" width="160" height="64" as="geometry" />
        </mxCell>
        <mxCell id="Im5mbbu3NTZtbHSFDWac-26" value="" style="line;strokeWidth=1;fillColor=none;align=left;verticalAlign=middle;spacingTop=-1;spacingLeft=3;spacingRight=3;rotatable=0;labelPosition=right;points=[];portConstraint=eastwest;strokeColor=inherit;" vertex="1" parent="Im5mbbu3NTZtbHSFDWac-24">
          <mxGeometry y="90" width="160" height="40" as="geometry" />
        </mxCell>
        <mxCell id="Im5mbbu3NTZtbHSFDWac-27" value="cadastraCandidatura()" style="text;strokeColor=none;fillColor=none;align=left;verticalAlign=top;spacingLeft=4;spacingRight=4;overflow=hidden;rotatable=0;points=[[0,0.5],[1,0.5]];portConstraint=eastwest;whiteSpace=wrap;html=1;" vertex="1" parent="Im5mbbu3NTZtbHSFDWac-24">
          <mxGeometry y="130" width="160" height="50" as="geometry" />
        </mxCell>
        <mxCell id="Im5mbbu3NTZtbHSFDWac-28" style="edgeStyle=orthogonalEdgeStyle;rounded=0;orthogonalLoop=1;jettySize=auto;html=1;exitX=0.5;exitY=0;exitDx=0;exitDy=0;entryX=-0.01;entryY=0.194;entryDx=0;entryDy=0;entryPerimeter=0;endArrow=block;endFill=0;" edge="1" parent="1" source="Im5mbbu3NTZtbHSFDWac-24" target="Im5mbbu3NTZtbHSFDWac-8">
          <mxGeometry relative="1" as="geometry" />
        </mxCell>
        <mxCell id="Im5mbbu3NTZtbHSFDWac-29" style="edgeStyle=orthogonalEdgeStyle;rounded=0;orthogonalLoop=1;jettySize=auto;html=1;exitX=0.5;exitY=0;exitDx=0;exitDy=0;entryX=1.005;entryY=0.033;entryDx=0;entryDy=0;entryPerimeter=0;endArrow=block;endFill=0;" edge="1" parent="1" source="QnhNKuaYADcW9F5FDfBM-19" target="Im5mbbu3NTZtbHSFDWac-8">
          <mxGeometry relative="1" as="geometry" />
        </mxCell>
        <mxCell id="Im5mbbu3NTZtbHSFDWac-30" style="edgeStyle=orthogonalEdgeStyle;rounded=0;orthogonalLoop=1;jettySize=auto;html=1;exitX=0;exitY=0.5;exitDx=0;exitDy=0;entryX=0.99;entryY=-0.032;entryDx=0;entryDy=0;entryPerimeter=0;endArrow=diamondThin;endFill=1;" edge="1" parent="1" source="Im5mbbu3NTZtbHSFDWac-15" target="QnhNKuaYADcW9F5FDfBM-14">
          <mxGeometry relative="1" as="geometry" />
        </mxCell>
        <mxCell id="Im5mbbu3NTZtbHSFDWac-31" value="1" style="edgeLabel;html=1;align=center;verticalAlign=middle;resizable=0;points=[];" vertex="1" connectable="0" parent="Im5mbbu3NTZtbHSFDWac-30">
          <mxGeometry x="-0.9196" relative="1" as="geometry">
            <mxPoint as="offset" />
          </mxGeometry>
        </mxCell>
        <mxCell id="Im5mbbu3NTZtbHSFDWac-32" value="1" style="edgeLabel;html=1;align=center;verticalAlign=middle;resizable=0;points=[];" vertex="1" connectable="0" parent="Im5mbbu3NTZtbHSFDWac-30">
          <mxGeometry x="0.8849" relative="1" as="geometry">
            <mxPoint as="offset" />
          </mxGeometry>
        </mxCell>
        <mxCell id="Im5mbbu3NTZtbHSFDWac-48" style="edgeStyle=orthogonalEdgeStyle;rounded=0;orthogonalLoop=1;jettySize=auto;html=1;entryX=0.613;entryY=0.009;entryDx=0;entryDy=0;entryPerimeter=0;endArrow=none;startFill=0;" edge="1" parent="1" source="Im5mbbu3NTZtbHSFDWac-21" target="Im5mbbu3NTZtbHSFDWac-12">
          <mxGeometry relative="1" as="geometry" />
        </mxCell>
        <mxCell id="Im5mbbu3NTZtbHSFDWac-49" value="1" style="edgeLabel;html=1;align=center;verticalAlign=middle;resizable=0;points=[];" vertex="1" connectable="0" parent="Im5mbbu3NTZtbHSFDWac-48">
          <mxGeometry x="0.7862" y="-1" relative="1" as="geometry">
            <mxPoint as="offset" />
          </mxGeometry>
        </mxCell>
        <mxCell id="Im5mbbu3NTZtbHSFDWac-50" value="1..*" style="edgeLabel;html=1;align=center;verticalAlign=middle;resizable=0;points=[];" vertex="1" connectable="0" parent="Im5mbbu3NTZtbHSFDWac-48">
          <mxGeometry x="-0.7893" y="-3" relative="1" as="geometry">
            <mxPoint as="offset" />
          </mxGeometry>
        </mxCell>
        <mxCell id="Im5mbbu3NTZtbHSFDWac-51" style="edgeStyle=orthogonalEdgeStyle;rounded=0;orthogonalLoop=1;jettySize=auto;html=1;exitX=0.75;exitY=0;exitDx=0;exitDy=0;entryX=0.664;entryY=1.016;entryDx=0;entryDy=0;entryPerimeter=0;endArrow=none;startFill=0;" edge="1" parent="1" source="Im5mbbu3NTZtbHSFDWac-16" target="QnhNKuaYADcW9F5FDfBM-30">
          <mxGeometry relative="1" as="geometry">
            <Array as="points">
              <mxPoint x="660" y="520" />
              <mxPoint x="1046" y="520" />
            </Array>
          </mxGeometry>
        </mxCell>
        <mxCell id="Im5mbbu3NTZtbHSFDWac-52" value="1..*" style="edgeLabel;html=1;align=center;verticalAlign=middle;resizable=0;points=[];" vertex="1" connectable="0" parent="Im5mbbu3NTZtbHSFDWac-51">
          <mxGeometry x="-0.9512" relative="1" as="geometry">
            <mxPoint x="1" as="offset" />
          </mxGeometry>
        </mxCell>
        <mxCell id="Im5mbbu3NTZtbHSFDWac-53" value="1..*" style="edgeLabel;html=1;align=center;verticalAlign=middle;resizable=0;points=[];" vertex="1" connectable="0" parent="Im5mbbu3NTZtbHSFDWac-51">
          <mxGeometry x="0.9234" y="-1" relative="1" as="geometry">
            <mxPoint as="offset" />
          </mxGeometry>
        </mxCell>
        <mxCell id="Im5mbbu3NTZtbHSFDWac-54" style="edgeStyle=orthogonalEdgeStyle;rounded=0;orthogonalLoop=1;jettySize=auto;html=1;entryX=1;entryY=0.5;entryDx=0;entryDy=0;" edge="1" parent="1" source="QnhNKuaYADcW9F5FDfBM-19" target="Im5mbbu3NTZtbHSFDWac-19">
          <mxGeometry relative="1" as="geometry">
            <Array as="points">
              <mxPoint x="1210" y="770" />
              <mxPoint x="700" y="770" />
            </Array>
          </mxGeometry>
        </mxCell>
        <mxCell id="Im5mbbu3NTZtbHSFDWac-55" value="1..*" style="edgeLabel;html=1;align=center;verticalAlign=middle;resizable=0;points=[];" vertex="1" connectable="0" parent="Im5mbbu3NTZtbHSFDWac-54">
          <mxGeometry x="-0.9644" y="3" relative="1" as="geometry">
            <mxPoint as="offset" />
          </mxGeometry>
        </mxCell>
        <mxCell id="Im5mbbu3NTZtbHSFDWac-56" value="1..*" style="edgeLabel;html=1;align=center;verticalAlign=middle;resizable=0;points=[];" vertex="1" connectable="0" parent="Im5mbbu3NTZtbHSFDWac-54">
          <mxGeometry x="0.9109" y="5" relative="1" as="geometry">
            <mxPoint as="offset" />
          </mxGeometry>
        </mxCell>
        <mxCell id="Im5mbbu3NTZtbHSFDWac-57" style="edgeStyle=orthogonalEdgeStyle;rounded=0;orthogonalLoop=1;jettySize=auto;html=1;entryX=0;entryY=0.851;entryDx=0;entryDy=0;entryPerimeter=0;endArrow=none;startFill=0;" edge="1" parent="1" source="QnhNKuaYADcW9F5FDfBM-18" target="QnhNKuaYADcW9F5FDfBM-12">
          <mxGeometry relative="1" as="geometry">
            <Array as="points">
              <mxPoint x="820" y="560" />
              <mxPoint x="520" y="560" />
              <mxPoint x="520" y="949" />
            </Array>
          </mxGeometry>
        </mxCell>
        <mxCell id="Im5mbbu3NTZtbHSFDWac-62" value="1" style="edgeLabel;html=1;align=center;verticalAlign=middle;resizable=0;points=[];" vertex="1" connectable="0" parent="Im5mbbu3NTZtbHSFDWac-57">
          <mxGeometry x="0.9142" relative="1" as="geometry">
            <mxPoint as="offset" />
          </mxGeometry>
        </mxCell>
        <mxCell id="Im5mbbu3NTZtbHSFDWac-63" value="1" style="edgeLabel;html=1;align=center;verticalAlign=middle;resizable=0;points=[];" vertex="1" connectable="0" parent="Im5mbbu3NTZtbHSFDWac-57">
          <mxGeometry x="-0.9734" y="2" relative="1" as="geometry">
            <mxPoint as="offset" />
          </mxGeometry>
        </mxCell>
        <mxCell id="Im5mbbu3NTZtbHSFDWac-58" style="edgeStyle=orthogonalEdgeStyle;rounded=0;orthogonalLoop=1;jettySize=auto;html=1;entryX=0.138;entryY=-0.007;entryDx=0;entryDy=0;entryPerimeter=0;endArrow=none;startFill=0;exitX=0.688;exitY=1.012;exitDx=0;exitDy=0;exitPerimeter=0;" edge="1" parent="1" source="QnhNKuaYADcW9F5FDfBM-18" target="Im5mbbu3NTZtbHSFDWac-12">
          <mxGeometry relative="1" as="geometry">
            <Array as="points">
              <mxPoint x="850" y="491" />
              <mxPoint x="850" y="510" />
              <mxPoint x="992" y="510" />
            </Array>
          </mxGeometry>
        </mxCell>
        <mxCell id="Im5mbbu3NTZtbHSFDWac-60" value="1" style="edgeLabel;html=1;align=center;verticalAlign=middle;resizable=0;points=[];" vertex="1" connectable="0" parent="Im5mbbu3NTZtbHSFDWac-58">
          <mxGeometry x="0.9214" relative="1" as="geometry">
            <mxPoint as="offset" />
          </mxGeometry>
        </mxCell>
        <mxCell id="Im5mbbu3NTZtbHSFDWac-61" value="1..*" style="edgeLabel;html=1;align=center;verticalAlign=middle;resizable=0;points=[];" vertex="1" connectable="0" parent="Im5mbbu3NTZtbHSFDWac-58">
          <mxGeometry x="-0.9801" relative="1" as="geometry">
            <mxPoint y="6" as="offset" />
          </mxGeometry>
        </mxCell>
      </root>
    </mxGraphModel>
  </diagram>
</mxfile>
